<svg width="238" height="240" viewBox="0 0 238 240" fill="none" xmlns="http://www.w3.org/2000/svg">
<path d="M175.168 63.3979H123.407C119.823 63.3979 116.908 60.4892 116.908 56.9057V48.7261C116.908 45.1426 119.823 42.2339 123.407 42.2339H175.168C178.752 42.2339 181.66 45.1426 181.66 48.7261V56.9057C181.66 60.4892 178.752 63.3979 175.168 63.3979ZM123.407 46.8877C122.388 46.8877 121.562 47.7138 121.562 48.7261V56.9057C121.562 57.9182 122.388 58.7441 123.407 58.7441H175.168C176.18 58.7441 177.003 57.9182 177.003 56.9057V48.7261C177.003 47.7138 176.18 46.8877 175.168 46.8877H123.407Z" fill="white"/>
<path d="M166.411 46.8887H132.156L116.562 18.3325C114.447 14.4532 114.528 9.86363 116.787 6.06475C119.043 2.26577 123.025 -4.95911e-05 127.441 -4.95911e-05H171.126C175.551 -4.95911e-05 179.537 2.27225 181.793 6.07113C184.04 9.87011 184.126 14.4532 182.005 18.3325L166.411 46.8887ZM134.92 42.2349H163.647L177.92 16.102C179.241 13.6755 179.193 10.8181 177.785 8.44627C176.381 6.07113 173.89 4.65377 171.126 4.65377H127.441C124.684 4.65377 122.193 6.07113 120.788 8.4398C119.374 10.8181 119.326 13.6755 120.647 16.102L134.92 42.2349Z" fill="white"/>
<path d="M0.0755005 99.3496H52.9712V77.7517H0.0755005V99.3496ZM4.72931 82.4023H48.3173V94.6926H4.72931V82.4023Z" fill="white"/>
<path d="M48.3173 240H101.213V158.976H48.3173V240ZM52.9712 163.629H96.5559V235.346H52.9712V163.629Z" fill="white"/>
<path d="M0.0738733 112.967V151.856L5.20658 148.295H48.3157V158.975H0.559136V178.962H48.3157V189.642H0.633112L0 209.637H48.3157V220.317H4.72769V219.394H0.0738733V239.999H52.9696V224.97H101.211V204.983H52.9696V194.296H101.211V174.309H52.9696V112.967H0.0738733ZM4.72769 117.62H48.3156V128.307H4.72769V117.62ZM4.72769 132.961H48.3156V143.641H4.72769V132.961ZM5.21305 163.632H48.3157V174.312H5.21305V163.632ZM52.9696 178.962H96.5543V189.642H52.9696V178.962ZM5.14237 194.296H48.3157V204.983H4.80167L5.14237 194.296ZM52.9696 209.637H96.5543V220.317H52.9696V209.637ZM4.72769 224.97H48.3156V235.345H4.72769V224.97Z" fill="white"/>
<path d="M0.0755005 224.972H52.9712V143.642H0.0755005V224.972ZM4.72931 148.293H48.3173V220.315H4.72931V148.293Z" fill="white"/>
<path d="M149.283 240C134.345 240 120.714 238.084 108.774 234.305C106.653 233.63 104.468 232.685 102.096 231.412L97.7827 229.092L99.9875 224.994L104.304 227.314C106.412 228.449 108.334 229.285 110.182 229.866C121.666 233.505 134.817 235.346 149.283 235.346C188.198 235.346 216.828 222.105 227.833 199.012C237.015 179.754 232.423 156.546 215.234 135.34C181.786 94.0821 171.01 69.688 168.561 63.3983H130.006C127.557 69.688 116.781 94.0821 83.3327 135.34C80.1508 139.267 72.3633 150.892 72.3633 154.627H67.7095C67.7095 147.784 79.6012 132.56 79.7202 132.409C117.462 85.8447 126.091 60.5924 126.169 60.3418L126.702 58.7445H171.865L172.398 60.3418C172.476 60.5924 181.108 85.8447 218.847 132.409C237.215 155.064 242.023 180.069 232.04 201.014C220.229 225.788 190.066 240 149.283 240Z" fill="white"/>
<path d="M149.284 177C142.473 177 136.932 171.46 136.932 164.649H141.586C141.586 168.892 145.041 172.347 149.284 172.347C153.526 172.347 156.981 168.892 156.981 164.649C156.981 160.407 153.526 156.952 149.284 156.952C142.473 156.952 136.932 151.414 136.932 144.6C136.932 137.79 142.473 132.249 149.284 132.249C156.097 132.249 161.635 137.79 161.635 144.6H156.981C156.981 140.358 153.526 136.906 149.284 136.906C145.041 136.906 141.586 140.358 141.586 144.6C141.586 148.843 145.041 152.298 149.284 152.298C156.097 152.298 161.635 157.839 161.635 164.649C161.635 171.46 156.097 177 149.284 177Z" fill="white"/>
<path d="M151.611 134.578H146.958V129.658H151.611V134.578Z" fill="white"/>
<path d="M151.611 179.59H146.958V174.676H151.611V179.59Z" fill="white"/>
<path d="M122.891 158.966H117.977V154.312H122.891V158.966Z" fill="white"/>
<path d="M180.592 158.966H175.678V154.312H180.592V158.966Z" fill="white"/>
<path d="M21.0177 82.4026H4.72931V94.6929H21.0177V82.4026Z" fill="#C9CCD1"/>
<path d="M2.39948 80.0749V97.019H21.018V94.6953H4.72962V82.4051H21.018V80.0749H2.39948Z" fill="white"/>
<path d="M69.2596 224.971H52.9712V235.346H69.2596V224.971ZM69.2596 209.638H52.9712V220.318H69.2596V209.638ZM69.2596 194.297H52.9712V204.984H69.2596V194.297ZM69.2596 178.963H52.9712V189.643H69.2596V178.963ZM69.2596 163.633H52.9712V174.313H69.2596V163.633Z" fill="#C9CCD1"/>
<path d="M52.9712 163.63H69.2596V161.299H52.9712V163.63ZM52.9712 237.67H69.2596V235.343H52.9712V237.67Z" fill="white"/>
<path d="M52.9712 178.963H69.2596V174.31H52.9712V178.963ZM52.9712 194.297H69.2596V189.644H52.9712V194.297ZM52.9712 209.638H69.2596V204.984H52.9712V209.638ZM52.9712 220.318V224.972H50.6411V237.67H52.9712V235.346V224.972H69.2596V220.318H52.9712Z" fill="white"/>
<path d="M50.642 161.302V224.971H52.9721V220.317V209.637V204.983V194.296V189.643V178.963V174.309V163.632V161.302H50.642Z" fill="white"/>
<path d="M117.501 159.005H101.213V174.31V194.298V204.984V224.972V225.654L104.301 227.315C106.413 228.45 108.335 229.285 110.183 229.867C112.552 230.619 114.991 231.291 117.501 231.889V159.005Z" fill="#C9CCD1"/>
<path d="M98.8828 174.31H101.213V159.005H98.8828V174.31ZM98.8828 204.984H101.213V194.297H98.8828V204.984ZM98.8828 224.971V227.041V227.044L99.9853 224.994L101.213 225.653V224.971H98.8828Z" fill="white"/>
<path d="M98.8828 194.297H101.213V174.31H98.8828V194.297ZM98.8828 224.972H101.213V204.984H98.8828V224.972Z" fill="white"/>
<path d="M99.9877 224.993L98.8853 227.041L117.501 234.468V231.887C114.994 231.29 112.551 230.618 110.182 229.866C108.334 229.284 106.412 228.448 104.304 227.314L101.212 225.652L99.9877 224.993Z" fill="white"/>
<path d="M21.0177 132.959H4.72931V143.639H21.0177V132.959ZM21.0177 117.621H4.72931V128.305H21.0177V117.621Z" fill="#C9CCD1"/>
<path d="M2.39948 115.298V143.639H4.72962V132.959H21.018V128.305H4.72962V117.621H21.018V115.298H2.39948Z" fill="white"/>
<path d="M21.0177 209.638H4.72931V220.318H21.0177V209.638ZM21.0177 194.297H5.1407L4.80318 204.984H21.0177V194.297ZM21.0177 178.964H4.72931V189.644H21.0177V178.964ZM21.0177 163.633H5.21457V174.313H21.0177V163.633ZM21.0177 148.293H5.2082L4.72931 148.627V158.976H21.0177V148.293Z" fill="#C9CCD1"/>
<path d="M21.0187 189.643H4.73029V209.637H21.0187V204.983H4.80097L5.14167 194.297H21.0187V189.643ZM21.0187 158.978H4.73029V178.963H21.0187V174.309H5.21555V163.632H21.0187V158.978ZM21.0187 148.292H4.73029V148.626L5.20918 148.292H21.0187Z" fill="white"/>
<path d="M21.0177 224.971H4.72931V235.346H21.0177V224.971Z" fill="#C9CCD1"/>
<path d="M4.72803 224.97H21.0197H4.72803ZM2.39789 224.97V237.672H21.0197V235.345H4.72803V224.97H2.39789Z" fill="white"/>
<path d="M4.72803 143.639H2.39789V224.969H21.0197V220.315H4.72803V209.635V189.644V178.964V158.977V148.628V148.293H21.0197V143.639H4.72803Z" fill="white"/>
<path d="M139.261 46.8881H123.406C122.388 46.8881 121.562 47.7109 121.562 48.7233V56.9061C121.562 57.9184 122.388 58.7412 123.406 58.7412H126.704H139.261V46.8881ZM130.092 4.65317H127.443C124.686 4.65317 122.195 6.07054 120.787 8.43921C119.376 10.8175 119.328 13.6749 120.649 16.1014L134.922 42.2343H147.662C143.137 34.5849 130.664 12.8488 130.092 4.65317Z" fill="#C9CCD1"/>
<path d="M125.466 44.2411C124.83 44.2411 124.136 44.3214 123.403 44.5593C121.208 45.2728 119.234 51.6172 119.234 51.6172L120.433 59.8192L126.042 60.7031C126.122 60.4781 126.164 60.3592 126.17 60.3431L126.704 58.7426H123.406C122.387 58.7426 121.561 57.9198 121.561 56.9074V48.7245C121.561 47.7122 122.387 46.8894 123.406 46.8894H139.261H132.158L130.885 44.5593H128.449C127.784 44.5593 126.739 44.2411 125.466 44.2411Z" fill="white"/>
<path d="M130.443 2.32264L120.435 5.1734C120.435 5.1734 118.5 11.1835 117.976 12.2249C117.449 13.2663 117.247 14.224 118.606 17.2162C119.966 20.2052 128.451 34.6777 129.196 35.4266C129.945 36.1723 133.541 44.5575 133.541 44.5575H130.884L132.159 46.8877H139.262V44.9433H149.287C149.287 44.9433 148.673 43.9373 147.664 42.2339H134.92L120.647 16.101C119.329 13.6777 119.374 10.8173 120.788 8.43882C122.193 6.07015 124.684 4.65279 127.441 4.65279H130.093C130.025 3.66284 130.128 2.86904 130.443 2.32264Z" fill="white"/>
<path d="M144.761 63.397H130.006C127.557 69.6868 116.78 94.0809 83.3323 135.339C80.1505 139.266 72.3631 150.891 72.3631 154.626H70.3672C70.0072 156.079 69.7308 157.567 69.6279 158.978H90.2649C97.3645 148.789 125.625 108.094 131.941 97.0184C137.79 86.7594 142.984 69.6 144.761 63.397Z" fill="#C9CCD1"/>
<path d="M90.2659 158.976H69.6289C69.5582 159.972 69.5711 160.93 69.7061 161.808L88.6428 161.3C88.6428 161.3 89.2309 160.464 90.2659 158.976Z" fill="white"/>
<path d="M139.261 58.7423H126.704L126.17 60.3429C126.164 60.359 126.122 60.4779 126.042 60.7029L128.379 61.0693L126.701 65.1157C126.701 65.1157 116.416 85.2737 111.595 92.6306C106.777 99.9841 93.6612 118.452 90.2094 122.887C86.7607 127.322 73.5963 145.642 73.5963 145.642C73.5963 145.642 71.536 149.942 70.3694 154.625H72.3653C72.3653 150.89 80.1527 139.269 83.3346 135.341C116.783 94.08 127.556 69.6859 130.005 63.3961H144.76C145.184 61.9242 145.413 61.0693 145.413 61.0693L139.261 60.4682V58.7423Z" fill="white"/>
</svg>
