<svg width="376" height="248" viewBox="0 0 376 248" fill="none" xmlns="http://www.w3.org/2000/svg">
<path d="M96.3245 4.73988H86.544V134.318H96.3245V4.73988Z" fill="#C9CCD1"/>
<path d="M279.284 4.73988H269.504V134.318H279.284V4.73988Z" fill="#C9CCD1"/>
<path d="M279.284 180.214H269.504V241.891H279.284V180.214Z" fill="#C9CCD1"/>
<path d="M96.3245 180.214H86.544V241.891H96.3245V180.214Z" fill="#C9CCD1"/>
<path d="M6.88767 175.876H368.721V166.099H6.88767V175.876Z" fill="#C9CCD1"/>
<path fill-rule="evenodd" clip-rule="evenodd" d="M81.7352 244C81.7352 245.964 83.3271 247.556 85.2909 247.556H108.518C110.482 247.556 112.074 245.964 112.074 244V180.529H263.465V244C263.465 245.964 265.057 247.556 267.021 247.556H290.248C292.212 247.556 293.804 245.964 293.804 244V180.529H371.542C373.506 180.529 375.098 178.937 375.098 176.973C375.098 175.009 373.506 173.417 371.542 173.417H4.00003C2.03627 173.417 0.444336 175.009 0.444336 176.973C0.444336 178.937 2.03627 180.529 4.00003 180.529H81.7352V244ZM104.962 181.451H88.8466V240.444H104.962V181.451ZM286.692 181.451V240.444H270.577V181.451H286.692ZM0.444336 153.746C0.444336 155.71 2.03627 157.302 4.00003 157.302H371.542C373.506 157.302 375.098 155.71 375.098 153.746C375.098 151.782 373.506 150.19 371.542 150.19H4.00003C2.03627 150.19 0.444336 151.782 0.444336 153.746ZM45.8057 138.648C47.7695 138.648 49.3614 137.056 49.3614 135.092V81.8234C54.4341 77.4594 59.1864 72.6454 63.5118 67.4984C70.989 58.601 77.2676 48.6156 81.7352 38.1085V135.092C81.7352 137.056 83.3271 138.648 85.2909 138.648H108.518C110.482 138.648 112.074 137.056 112.074 135.092V36.4825C118.963 51.5871 130.512 64.2271 144.935 72.7064V135.092C144.935 137.056 146.527 138.648 148.49 138.648C150.454 138.648 152.046 137.056 152.046 135.092V76.4385C161.944 81.0398 172.927 83.7849 184.51 84.2139V135.092C184.51 137.056 186.102 138.648 188.065 138.648C190.029 138.648 191.621 137.056 191.621 135.092V84.1849C203.22 83.6603 214.204 80.8126 224.085 76.1065V135.092C224.085 137.056 225.677 138.648 227.641 138.648C229.604 138.648 231.196 137.056 231.196 135.092V72.2867C245.369 63.7643 256.702 51.1975 263.465 36.2281V135.092C263.465 137.056 265.057 138.648 267.021 138.648H290.248C292.212 138.648 293.804 137.056 293.804 135.092V37.5476C298.285 48.2602 304.654 58.4428 312.264 67.4984C316.533 72.5777 321.217 77.3326 326.215 81.6508V135.092H333.326V87.3407C344.518 95.6116 356.912 101.675 369.526 104.452C371.008 104.778 372.533 104.128 373.324 102.833C374.115 101.539 373.998 99.885 373.032 98.7151L293.262 2.11224C292.633 1.11034 291.518 0.444275 290.248 0.444275H267.021C266.91 0.444275 266.8 0.449341 266.692 0.459259H108.846C108.738 0.449341 108.629 0.444275 108.518 0.444275H85.2909C83.7463 0.444275 82.4317 1.42917 81.9409 2.80522L2.74274 98.7151C1.77673 99.8849 1.65939 101.539 2.45057 102.833C3.24175 104.128 4.76714 104.778 6.24882 104.452C18.7888 101.692 31.1108 95.6838 42.25 87.4884V135.092C42.25 137.056 43.842 138.648 45.8057 138.648ZM42.3901 78.3875C34.0833 85.1563 25.0138 90.5829 15.7195 94.1687L81.1283 14.9579C78.4906 31.8329 70.0203 48.7001 58.0676 62.9232C54.1629 67.5696 49.9099 71.9058 45.401 75.8462C43.9618 76.0093 42.7832 77.0315 42.3901 78.3875ZM89.0247 7.55566H104.962V131.537H88.8466V10.2874C88.9221 9.377 88.9816 8.46629 89.0247 7.55566ZM112.233 7.57065H263.19C261.987 31.8548 248.532 53.0938 228.625 65.5287C228.312 65.4389 227.982 65.3908 227.641 65.3908C225.97 65.3908 224.568 66.5432 224.187 68.0965C213.384 73.8715 200.955 77.1617 187.713 77.1617C174.789 77.1617 162.64 74.0276 152.019 68.5082C151.803 66.7512 150.306 65.3908 148.49 65.3908C147.982 65.3908 147.498 65.4976 147.06 65.6901C127.009 53.278 113.441 31.9601 112.233 7.57065ZM270.577 7.55566H286.692V131.537H270.577V7.55566ZM294.647 14.958L360.055 94.1682C344.46 88.1509 329.497 76.9507 317.709 62.9232C305.756 48.7 297.285 31.8329 294.647 14.958Z" fill="#293345"/>
</svg>
