<svg width="204" height="240" viewBox="0 0 204 240" fill="none" xmlns="http://www.w3.org/2000/svg">
<path d="M84.4732 32.7798H79.7612V14.8349H84.4732V32.7798Z" fill="#293345"/>
<path d="M84.4732 55.9478H79.7612V49.3773H84.4732V55.9478Z" fill="#293345"/>
<path d="M101.851 17.9478H106.563V7.62939e-06H101.851V17.9478Z" fill="#293345"/>
<path d="M106.563 41.1138H101.851V34.5462H106.563V41.1138Z" fill="#293345"/>
<path d="M128.652 36.7349H123.94V18.7927H128.652V36.7349Z" fill="#293345"/>
<path d="M128.652 59.9009H123.94V53.3361H128.652V59.9009Z" fill="#293345"/>
<path d="M159.548 240H124.48L117.272 223.744C107.986 224.909 99.6852 224.814 90.9377 223.615L83.6825 240H48.6311L53.5079 210.1C41.8343 202.587 33.0142 192.772 27.8803 181.563H9.89337C4.44084 181.563 0 177.119 0 171.664V148.127C0 142.671 4.44084 138.231 9.89337 138.231H27.1005C30.5911 129.905 36.2756 122.077 43.6565 115.459V83.8759L46.6021 84.6304C47.2868 84.8065 62.954 88.9259 71.9586 99.001C74.3566 98.1626 76.7796 97.4191 79.1802 96.7875L81.4607 96.1894L82.6569 100.748L80.382 101.346C77.6012 102.072 74.8009 102.958 72.0341 103.981L70.4328 104.571L69.3707 103.238C63.636 96.0162 53.3905 91.8212 48.3684 90.1081V117.594L47.5579 118.299C39.9087 124.956 34.1488 132.954 30.8902 141.43L30.3145 142.94H9.89337C7.03438 142.94 4.71193 145.268 4.71193 148.127V171.664C4.71193 174.523 7.03438 176.851 9.89337 176.851H30.9712L31.5777 178.282C36.4042 189.62 45.3053 199.524 57.3227 206.93L58.6613 207.761L54.1758 235.289H80.6139L88.0842 218.422L89.87 218.696C99.2939 220.152 108.176 220.281 118.376 218.842L120.137 218.59L127.546 235.289H153.978L149.487 208.47L150.873 207.649C170.548 196.011 181.828 178.296 181.828 159.043C181.828 131.914 161.217 109.288 129.326 101.404L127.037 100.837L128.166 96.2621L130.455 96.8267C164.003 105.124 186.54 130.126 186.54 159.043C186.54 179.537 174.944 198.348 154.666 210.863L159.548 240Z" fill="#293345"/>
<path d="M184.348 161.403L184.055 161.397L181.71 161.269L181.956 156.588L184.298 156.691C184.865 156.691 197.162 157.099 199.009 141.935L199.292 139.598L203.973 140.166L203.682 142.508C201.474 160.687 186.623 161.4 184.348 161.403Z" fill="#293345"/>
<path d="M22.4556 165.442H17.7437V151.253H22.4556V165.442Z" fill="#293345"/>
<path d="M137.361 122.2L135.687 120.54C129.891 114.774 119.285 111.194 108.008 111.194C96.7343 111.194 86.1282 114.774 80.3376 120.537L78.6691 122.2L75.3462 118.86L77.0118 117.2C83.7611 110.49 95.3425 106.485 108.008 106.485C120.668 106.485 132.258 110.49 139.013 117.197L140.678 118.86L137.361 122.2Z" fill="#293345"/>
<path d="M87.6074 115.502L86.4867 114.533C80.4305 109.309 76.9595 101.817 76.9595 93.9775C76.9595 78.9558 89.1836 66.7316 104.205 66.7316C119.23 66.7316 131.454 78.9558 131.454 93.9775C131.454 100.763 128.872 107.303 124.193 112.389L123.209 113.454L121.818 113.063C111.125 110.047 98.4481 110.793 88.9629 114.91L87.6074 115.502ZM104.205 71.4436C91.7771 71.4436 81.6686 81.5521 81.6686 93.9775C81.6686 99.9778 84.1475 105.743 88.5101 110C98.3223 106.146 110.818 105.416 121.639 108.138C124.939 104.097 126.742 99.117 126.742 93.9775C126.742 81.5521 116.633 71.4436 104.205 71.4436Z" fill="#293345"/>
<path d="M133.85 214.375L117.101 218.969L117.121 219.011C117.537 218.955 117.956 218.899 118.375 218.841L120.136 218.589L127.545 235.288H143.411L133.85 214.375Z" fill="#C9CCD1"/>
<path d="M120.136 218.589L118.375 218.84C117.956 218.899 117.537 218.955 117.121 219.011L126.013 238.454H144.858L143.411 235.287H127.545L120.136 218.589Z" fill="#293345"/>
<path d="M48.3669 90.1074V117.594L47.5565 118.298C39.9073 124.955 34.1473 132.953 30.8915 141.43L30.313 142.939H28.3594C28.3567 142.942 28.3567 142.944 28.3567 142.947L28.2812 142.939H9.89471C7.03572 142.939 4.71045 145.267 4.71045 148.126V171.663C4.71045 174.522 7.03572 176.85 9.89471 176.85H22.5967C21.7164 175.615 21.1966 174.106 21.1966 172.474L21.0904 165.442H17.7451V151.256H20.8724L20.8612 150.487C20.8612 146.323 24.2372 142.947 28.4014 142.947H47.1987C50.681 133.887 57.0194 124.156 64.853 117.331V98.7599C59.23 94.2324 52.2432 91.4294 48.3669 90.1074Z" fill="#C9CCD1"/>
<path d="M9.8955 141.395C5.72858 141.395 2.35254 144.771 2.35254 148.938V172.475C2.35254 176.639 5.72858 180.012 9.8955 180.012H28.7376C26.2055 180.012 23.9642 178.766 22.5975 176.849H9.89268C7.03651 176.849 4.71132 174.521 4.71132 171.664V148.127C4.71132 145.268 7.03651 142.94 9.89268 142.94H28.282L9.8955 141.395ZM46.009 87.722V117.332C38.1754 124.154 31.8397 133.882 28.3575 142.94H30.3138L30.8895 141.428C34.1481 132.955 39.9081 124.956 47.5572 118.296L48.3677 117.595V90.1086C52.244 91.4305 59.2308 94.2309 64.8538 98.7583V96.6203C56.3495 90.3993 46.009 87.722 46.009 87.722Z" fill="#293345"/>
<path d="M20.8714 151.255H17.7441V165.444H21.0894L20.8714 151.255Z" fill="#293345"/>
</svg>
