<svg width="212" height="240" viewBox="0 0 212 240" fill="none" xmlns="http://www.w3.org/2000/svg">
<path d="M0 240H81.2661V44.8696H0V240ZM4.25707 49.1267H77.0141V235.746H4.25707V49.1267Z" fill="white"/>
<path d="M77.0123 81.4656V240H157.786V235.745H81.2669V85.7201H155.659V157.736H159.914V81.4656H77.0123Z" fill="white"/>
<path d="M97.2256 126.758H92.9711V123.255H97.2256V126.758Z" fill="white"/>
<path d="M112.803 126.758H108.549V123.255H112.803V126.758Z" fill="white"/>
<path d="M128.378 126.758H124.124V123.255H128.378V126.758Z" fill="white"/>
<path d="M117.998 126.758H113.743V123.255H117.998V126.758Z" fill="white"/>
<path d="M97.2256 105.991H92.9711V102.488H97.2256V105.991Z" fill="white"/>
<path d="M112.803 105.991H108.549V102.488H112.803V105.991Z" fill="white"/>
<path d="M128.378 105.991H124.124V102.488H128.378V105.991Z" fill="white"/>
<path d="M117.998 105.991H113.743V102.488H117.998V105.991Z" fill="white"/>
<path d="M97.2256 147.526H92.9711V144.022H97.2256V147.526Z" fill="white"/>
<path d="M112.803 147.526H108.549V144.022H112.803V147.526Z" fill="white"/>
<path d="M128.378 147.526H124.124V144.022H128.378V147.526Z" fill="white"/>
<path d="M117.998 147.526H113.743V144.022H117.998V147.526Z" fill="white"/>
<path d="M97.2256 168.294H92.9711V164.788H97.2256V168.294Z" fill="white"/>
<path d="M112.803 168.294H108.549V164.788H112.803V168.294Z" fill="white"/>
<path d="M128.378 168.294H124.124V164.788H128.378V168.294Z" fill="white"/>
<path d="M117.998 168.294H113.743V164.788H117.998V168.294Z" fill="white"/>
<path d="M97.2256 189.061H92.9711V185.557H97.2256V189.061Z" fill="white"/>
<path d="M112.803 189.061H108.549V185.557H112.803V189.061Z" fill="white"/>
<path d="M128.378 189.061H124.124V185.557H128.378V189.061Z" fill="white"/>
<path d="M117.998 189.061H113.743V185.557H117.998V189.061Z" fill="white"/>
<path d="M19.3964 128.293H15.1418V124.79H19.3964V128.293Z" fill="white"/>
<path d="M34.9715 128.293H30.7169V124.79H34.9715V128.293Z" fill="white"/>
<path d="M50.5516 128.293H46.2971V124.79H50.5516V128.293Z" fill="white"/>
<path d="M66.1267 128.293H61.8722V124.79H66.1267V128.293Z" fill="white"/>
<path d="M19.3964 108.039H15.1418V104.533H19.3964V108.039Z" fill="white"/>
<path d="M34.9715 108.039H30.7169V104.533H34.9715V108.039Z" fill="white"/>
<path d="M50.5516 108.039H46.2971V104.533H50.5516V108.039Z" fill="white"/>
<path d="M66.1267 108.039H61.8722V104.533H66.1267V108.039Z" fill="white"/>
<path d="M19.3964 87.7837H15.1418V84.2801H19.3964V87.7837Z" fill="white"/>
<path d="M34.9715 87.7837H30.7169V84.2801H34.9715V87.7837Z" fill="white"/>
<path d="M50.5516 87.7837H46.2971V84.2801H50.5516V87.7837Z" fill="white"/>
<path d="M66.1267 87.7837H61.8722V84.2801H66.1267V87.7837Z" fill="white"/>
<path d="M19.3964 67.5288H15.1418V64.0252H19.3964V67.5288Z" fill="white"/>
<path d="M34.9715 67.5288H30.7169V64.0252H34.9715V67.5288Z" fill="white"/>
<path d="M50.5516 67.5288H46.2971V64.0252H50.5516V67.5288Z" fill="white"/>
<path d="M66.1267 67.5288H61.8722V64.0252H66.1267V67.5288Z" fill="white"/>
<path d="M19.3964 148.548H15.1418V145.042H19.3964V148.548Z" fill="white"/>
<path d="M34.9715 148.548H30.7169V145.042H34.9715V148.548Z" fill="white"/>
<path d="M50.5516 148.548H46.2971V145.042H50.5516V148.548Z" fill="white"/>
<path d="M66.1267 148.548H61.8722V145.042H66.1267V148.548Z" fill="white"/>
<path d="M19.3964 168.806H15.1418V165.303H19.3964V168.806Z" fill="white"/>
<path d="M34.9715 168.806H30.7169V165.303H34.9715V168.806Z" fill="white"/>
<path d="M50.5516 168.806H46.2971V165.303H50.5516V168.806Z" fill="white"/>
<path d="M66.1267 168.806H61.8722V165.303H66.1267V168.806Z" fill="white"/>
<path d="M19.3964 189.061H15.1418V185.557H19.3964V189.061Z" fill="white"/>
<path d="M34.9715 189.061H30.7169V185.557H34.9715V189.061Z" fill="white"/>
<path d="M50.5516 189.061H46.2971V185.557H50.5516V189.061Z" fill="white"/>
<path d="M66.1267 189.061H61.8722V185.557H66.1267V189.061Z" fill="white"/>
<path d="M143.953 222.731H92.9685V201.182H143.953V222.731ZM97.2256 218.476H139.699V205.439H97.2256V218.476Z" fill="white"/>
<path d="M15.142 240H66.1268V201.184H15.142V240ZM19.3964 205.439H61.8722V235.743H19.3964V205.439Z" fill="white"/>
<path d="M38.5057 237.873H42.7628V203.309H38.5057V237.873Z" fill="white"/>
<path d="M69.3356 49.1265H11.928V11.4869H69.3356V49.1265ZM16.1851 44.8694H65.0811V15.7415H16.1851V44.8694Z" fill="white"/>
<path d="M38.5057 13.6118H42.7628V5.72205e-06H38.5057V13.6118Z" fill="white"/>
<path d="M163.713 213.744C158.133 213.744 148.899 202.634 148.899 189.975C148.899 172.232 161.839 161.773 162.39 161.334L163.787 160.23L165.12 161.406C165.338 161.598 170.438 166.135 174.024 171.917L170.407 174.159C168.231 170.653 165.358 167.575 163.682 165.909C160.563 168.977 153.156 177.568 153.156 189.975C153.156 201.173 161.24 209.49 163.713 209.49C164.589 209.441 167.678 207.168 170.443 202.993L173.988 205.343C171.925 208.462 167.437 213.744 163.713 213.744Z" fill="white"/>
<path d="M135.631 237.873H139.886V211.616H135.631V237.873Z" fill="white"/>
<path d="M180.353 213.744C174.773 213.744 165.539 202.634 165.539 189.975C165.539 172.232 178.479 161.773 179.03 161.334L180.386 160.26L181.716 161.368C181.914 161.532 186.545 165.433 190.207 171.496L186.563 173.698C184.415 170.138 181.868 167.383 180.343 165.886C177.236 168.939 169.794 177.54 169.794 189.975C169.794 201.173 177.877 209.49 180.353 209.49C181.191 209.361 184.533 206.929 187.104 203.503L190.507 206.058C188.275 209.028 183.549 213.744 180.353 213.744Z" fill="white"/>
<path d="M152.27 237.873H156.524V211.616H152.27V237.873Z" fill="white"/>
<path d="M196.995 213.744C191.413 213.744 182.179 202.634 182.179 189.975C182.179 172.232 195.121 161.773 195.672 161.334L196.995 160.289L198.317 161.334C198.868 161.773 211.809 172.232 211.809 189.975C211.809 202.634 202.574 213.744 196.995 213.744ZM196.997 165.873C193.901 168.91 186.433 177.519 186.433 189.975C186.433 201.173 194.522 209.49 196.995 209.49C199.468 209.49 207.552 201.173 207.552 189.975C207.552 177.468 200.099 168.898 196.997 165.873Z" fill="white"/>
<path d="M168.911 237.873H173.168V211.616H168.911V237.873Z" fill="white"/>
<path d="M127.199 209.488H142.238V165.907H127.199V209.488Z" fill="#C9CCD1"/>
<path d="M163.712 163.003C163.712 163.003 151.026 173.057 151.026 189.975C151.026 201.875 159.576 211.532 163.659 211.617H163.759C165.137 211.583 167.208 210.043 169.233 207.883C168.785 207.385 168.339 206.844 167.903 206.263C166.004 208.344 164.322 209.456 163.712 209.487C161.239 209.487 153.156 201.17 153.156 189.975C153.156 177.568 160.563 168.977 163.682 165.909C164.83 167.047 166.534 168.846 168.193 170.991C168.615 170.346 169.041 169.736 169.461 169.161C166.573 165.53 163.712 163.003 163.712 163.003Z" fill="white"/>
<path d="M180.342 165.887C177.235 168.937 169.795 177.541 169.795 189.976C169.795 201.171 177.879 209.488 180.352 209.488C180.934 209.401 182.712 208.209 184.606 206.346C181.6 202.378 179.014 196.517 179.014 189.976C179.014 182.003 181.821 175.621 184.799 171.046C183.138 168.765 181.464 166.986 180.342 165.887Z" fill="#C9CCD1"/>
<path d="M180.353 163.003C180.353 163.003 167.667 173.057 167.667 189.975C167.667 201.875 176.217 211.532 180.3 211.617H180.397C181.778 211.583 183.849 210.043 185.871 207.883C185.446 207.408 185.021 206.896 184.605 206.347C182.714 208.208 180.933 209.4 180.353 209.487C177.878 209.487 169.794 201.17 169.794 189.975C169.794 177.54 177.237 168.936 180.341 165.886C181.463 166.985 183.137 168.767 184.798 171.045C185.233 170.379 185.669 169.751 186.102 169.161C183.214 165.53 180.353 163.003 180.353 163.003Z" fill="white"/>
<path d="M196.998 165.873C193.899 168.91 186.433 177.522 186.433 189.978C186.433 201.172 194.519 209.489 196.995 209.489C197.9 209.489 199.558 208.374 201.296 206.411C198.266 202.444 195.655 196.554 195.655 189.978C195.655 182.032 198.441 175.669 201.403 171.099C199.738 168.71 198.095 166.944 196.998 165.873Z" fill="#C9CCD1"/>
<path d="M196.993 163.003C196.993 163.003 184.307 173.057 184.307 189.975C184.307 201.875 192.857 211.532 196.94 211.617H197.04C198.418 211.583 200.489 210.043 202.514 207.883C202.104 207.426 201.696 206.937 201.297 206.411C199.559 208.375 197.901 209.487 196.996 209.487C194.52 209.487 186.434 201.17 186.434 189.975C186.434 177.519 193.9 168.91 196.999 165.873C198.096 166.942 199.738 168.708 201.404 171.099C201.85 170.412 202.299 169.766 202.742 169.161C199.854 165.53 196.993 163.003 196.993 163.003Z" fill="white"/>
<path d="M29.9738 205.439H19.3964V235.746H29.9738V205.439ZM19.1505 49.1267H4.25458V235.746H15.142V201.184H19.1505V189.061H15.142V185.558H19.1505V168.806H15.142V165.303H19.1505V148.549H15.142V145.045H19.1505V128.294H15.142V124.79H19.1505V108.039H15.142V104.535H19.1505V87.7837H15.142V84.2802H19.1505V67.5288H15.142V64.0252H19.1505V49.1267ZM31.081 15.7417H16.1851V44.8697H31.081V15.7417Z" fill="#C9CCD1"/>
<path d="M2.12909 46.9972V237.873H15.1412V235.743H4.25631V49.1271H19.1497H11.9298V46.9972H2.12909Z" fill="white"/>
<path d="M19.1505 124.79H15.142V128.294H19.1505V124.79Z" fill="white"/>
<path d="M19.1505 104.535H15.142V108.041H19.1505V104.535Z" fill="white"/>
<path d="M19.1505 84.2801H15.142V87.7837H19.1505V84.2801Z" fill="white"/>
<path d="M19.1505 64.0248H15.142V67.5283H19.1505V64.0248Z" fill="white"/>
<path d="M19.1505 145.045H15.142V148.551H19.1505V145.045Z" fill="white"/>
<path d="M19.1505 165.303H15.142V168.806H19.1505V165.303Z" fill="white"/>
<path d="M19.1505 185.558H15.142V189.062H19.1505V185.558Z" fill="white"/>
<path d="M15.141 201.183V235.745V237.872H18.2883H19.1495H29.9754V235.745H19.3981V205.44H29.9754V203.503H19.1495V201.183H15.141Z" fill="white"/>
<path d="M31.0802 13.6132H14.0596V46.9983H11.9299V49.1255H19.1497V46.9983H31.0802V44.8711H16.1843V15.7405H31.0802V13.6132Z" fill="white"/>
<path d="M113.183 205.439H97.2256V218.476H113.183V205.439ZM96.1594 85.7206H81.2662V235.746H96.1594V222.731H92.9686V201.184H96.1594V189.061H92.9686V185.558H96.1594V168.294H92.9686V164.79H96.1594V147.526H92.9686V144.023H96.1594V126.759H92.9686V123.255H96.1594V105.991H92.9686V102.488H96.1594V85.7206Z" fill="#C9CCD1"/>
<path d="M79.1368 84.5957V237.873H96.16V235.743H81.2667V85.7209H96.16V84.5957H79.1368Z" fill="white"/>
<path d="M96.1594 123.255H92.9686V126.758H96.1594V123.255Z" fill="white"/>
<path d="M96.1594 102.487H92.9686V105.991H96.1594V102.487Z" fill="white"/>
<path d="M96.1594 144.022H92.9686V147.526H96.1594V144.022Z" fill="white"/>
<path d="M96.1594 164.79H92.9686V168.296H96.1594V164.79Z" fill="white"/>
<path d="M96.1594 185.558H92.9686V189.062H96.1594V185.558Z" fill="white"/>
<path d="M96.1597 201.183H92.9689V222.732H96.1597V220.333H113.18V218.475H97.2234V205.437H113.18V203.31H96.1597V201.183Z" fill="white"/>
</svg>
