<svg width="204" height="240" viewBox="0 0 204 240" fill="none" xmlns="http://www.w3.org/2000/svg">
<path d="M84.4732 32.7793H79.7612V14.8344H84.4732V32.7793Z" fill="white"/>
<path d="M84.4732 55.9473H79.7612V49.3768H84.4732V55.9473Z" fill="white"/>
<path d="M101.851 17.9473H106.563V-0.000480652H101.851V17.9473Z" fill="white"/>
<path d="M106.563 41.1133H101.851V34.5457H106.563V41.1133Z" fill="white"/>
<path d="M128.652 36.7344H123.94V18.7922H128.652V36.7344Z" fill="white"/>
<path d="M128.652 59.9004H123.94V53.3356H128.652V59.9004Z" fill="white"/>
<path d="M159.548 240H124.48L117.272 223.743C107.986 224.909 99.6852 224.813 90.9377 223.615L83.6825 240H48.6311L53.5079 210.099C41.8343 202.587 33.0142 192.772 27.8803 181.562H9.89337C4.44084 181.562 0 177.119 0 171.663V148.126C0 142.671 4.44084 138.23 9.89337 138.23H27.1005C30.5911 129.905 36.2756 122.076 43.6565 115.459V83.8754L46.6021 84.6299C47.2868 84.806 62.954 88.9254 71.9586 99.0005C74.3566 98.1621 76.7796 97.4186 79.1802 96.787L81.4607 96.1889L82.6569 100.747L80.382 101.345C77.6012 102.072 74.8009 102.958 72.0341 103.981L70.4328 104.57L69.3707 103.237C63.636 96.0157 53.3905 91.8208 48.3684 90.1076V117.594L47.5579 118.298C39.9087 124.955 34.1488 132.954 30.8902 141.43L30.3145 142.939H9.89337C7.03438 142.939 4.71193 145.267 4.71193 148.126V171.663C4.71193 174.522 7.03438 176.85 9.89337 176.85H30.9712L31.5777 178.281C36.4042 189.619 45.3053 199.524 57.3227 206.93L58.6613 207.76L54.1758 235.288H80.6139L88.0842 218.422L89.87 218.696C99.2939 220.152 108.176 220.28 118.376 218.841L120.137 218.59L127.546 235.288H153.978L149.487 208.47L150.873 207.648C170.548 196.011 181.828 178.295 181.828 159.042C181.828 131.914 161.217 109.288 129.326 101.404L127.037 100.837L128.166 96.2616L130.455 96.8262C164.003 105.124 186.54 130.125 186.54 159.042C186.54 179.536 174.944 198.347 154.666 210.862L159.548 240Z" fill="white"/>
<path d="M184.348 161.402L184.055 161.397L181.71 161.268L181.956 156.587L184.298 156.69C184.865 156.69 197.162 157.098 199.009 141.934L199.292 139.598L203.973 140.165L203.682 142.507C201.474 160.687 186.623 161.4 184.348 161.402Z" fill="white"/>
<path d="M22.4556 165.441H17.7437V151.253H22.4556V165.441Z" fill="white"/>
<path d="M137.361 122.199L135.687 120.539C129.891 114.774 119.285 111.194 108.008 111.194C96.7343 111.194 86.1282 114.774 80.3376 120.536L78.6691 122.199L75.3462 118.86L77.0118 117.199C83.7611 110.489 95.3425 106.485 108.008 106.485C120.668 106.485 132.258 110.489 139.013 117.197L140.678 118.86L137.361 122.199Z" fill="white"/>
<path d="M87.6074 115.502L86.4867 114.532C80.4305 109.309 76.9595 101.816 76.9595 93.977C76.9595 78.9553 89.1836 66.7312 104.205 66.7312C119.23 66.7312 131.454 78.9553 131.454 93.977C131.454 100.763 128.872 107.302 124.193 112.389L123.209 113.453L121.818 113.062C111.125 110.047 98.4481 110.793 88.9629 114.909L87.6074 115.502ZM104.205 71.4431C91.7771 71.4431 81.6686 81.5516 81.6686 93.977C81.6686 99.9773 84.1475 105.743 88.5101 109.999C98.3223 106.145 110.818 105.416 121.639 108.138C124.939 104.097 126.742 99.1165 126.742 93.977C126.742 81.5516 116.633 71.4431 104.205 71.4431Z" fill="white"/>
<path d="M133.85 214.374L117.101 218.969L117.121 219.011C117.537 218.955 117.956 218.899 118.375 218.84L120.136 218.589L127.545 235.287H143.411L133.85 214.374Z" fill="#C9CCD1"/>
<path d="M120.136 218.588L118.375 218.84C117.956 218.898 117.537 218.954 117.121 219.01L126.013 238.453H144.858L143.411 235.287H127.545L120.136 218.588Z" fill="white"/>
<path d="M48.3669 90.1069V117.593L47.5565 118.297C39.9073 124.954 34.1473 132.953 30.8915 141.429L30.313 142.938H28.3594C28.3567 142.941 28.3567 142.944 28.3567 142.947L28.2812 142.938H9.89471C7.03572 142.938 4.71045 145.266 4.71045 148.125V171.663C4.71045 174.522 7.03572 176.85 9.89471 176.85H22.5967C21.7164 175.614 21.1966 174.105 21.1966 172.473L21.0904 165.442H17.7451V151.256H20.8724L20.8612 150.487C20.8612 146.323 24.2372 142.947 28.4014 142.947H47.1987C50.681 133.886 57.0194 124.155 64.853 117.33V98.7594C59.23 94.2319 52.2432 91.4289 48.3669 90.1069Z" fill="#C9CCD1"/>
<path d="M9.8955 141.394C5.72858 141.394 2.35254 144.77 2.35254 148.937V172.474C2.35254 176.638 5.72858 180.012 9.8955 180.012H28.7376C26.2055 180.012 23.9642 178.765 22.5975 176.848H9.89268C7.03651 176.848 4.71132 174.52 4.71132 171.664V148.127C4.71132 145.268 7.03651 142.94 9.89268 142.94H28.282L9.8955 141.394ZM46.009 87.7215V117.332C38.1754 124.154 31.8397 133.882 28.3575 142.94H30.3138L30.8895 141.428C34.1481 132.954 39.9081 124.956 47.5572 118.296L48.3677 117.594V90.1082C52.244 91.43 59.2308 94.2304 64.8538 98.7578V96.6198C56.3495 90.3988 46.009 87.7215 46.009 87.7215Z" fill="white"/>
<path d="M20.8714 151.254H17.7441V165.443H21.0894L20.8714 151.254Z" fill="white"/>
</svg>
