<svg width="376" height="248" viewBox="0 0 376 248" fill="none" xmlns="http://www.w3.org/2000/svg">
<path d="M96.3244 4.73988H86.544V134.318H96.3244V4.73988Z" fill="#C9CCD1"/>
<path d="M279.284 4.73988H269.504V134.318H279.284V4.73988Z" fill="#C9CCD1"/>
<path d="M279.284 180.214H269.504V241.891H279.284V180.214Z" fill="#C9CCD1"/>
<path d="M96.3244 180.214H86.544V241.891H96.3244V180.214Z" fill="#C9CCD1"/>
<path d="M6.88764 175.876H368.721V166.099H6.88764V175.876Z" fill="#C9CCD1"/>
<path d="M329.771 79.3792V135.092M108.518 177.895V244H85.2909V177.895H108.518ZM85.2909 135.092V4H108.518V135.092H85.2909ZM290.248 177.895V244H267.021V177.895H290.248ZM267.021 135.092V4H290.248V135.092H267.021ZM371.542 176.973H4H371.542ZM4 153.746H371.542H4ZM266.833 4.01499C266.833 46.3755 231.416 80.7174 187.713 80.7174C144.011 80.7174 108.589 46.3755 108.589 4.01499H266.833ZM370.29 100.979C329.572 92.016 290.222 46.8816 290.222 4.01499L370.29 100.979ZM5.48446 100.979C46.2068 92.016 85.5532 46.8816 85.5532 4.01499L5.48446 100.979ZM148.49 68.9465V135.092V68.9465ZM188.065 80.7174V135.092V80.7174ZM45.8057 79.3792V135.092V79.3792ZM227.641 68.9465V135.092V68.9465Z" stroke="white" stroke-width="7.11138" stroke-miterlimit="10" stroke-linejoin="round"/>
</svg>
